<mxfile host="Electron" agent="Mozilla/5.0 (Windows NT 10.0; Win64; x64) AppleWebKit/537.36 (KHTML, like Gecko) draw.io/24.7.5 Chrome/126.0.6478.183 Electron/31.3.0 Safari/537.36" version="24.7.5">
  <diagram name="Page-1" id="r8WNepJUXQx73punfDuT">
    <mxGraphModel dx="1834" dy="836" grid="1" gridSize="10" guides="1" tooltips="1" connect="1" arrows="1" fold="1" page="0" pageScale="1" pageWidth="827" pageHeight="1169" math="0" shadow="0">
      <root>
        <mxCell id="0" />
        <mxCell id="1" parent="0" />
        <mxCell id="leU3cQDFm6bJ0FVjxSkS-23" value="" style="rounded=0;whiteSpace=wrap;html=1;" vertex="1" parent="1">
          <mxGeometry x="-40" y="200" width="930" height="390" as="geometry" />
        </mxCell>
        <mxCell id="leU3cQDFm6bJ0FVjxSkS-2" value="" style="whiteSpace=wrap;html=1;aspect=fixed;" vertex="1" parent="1">
          <mxGeometry x="30" y="280" width="140" height="140" as="geometry" />
        </mxCell>
        <mxCell id="leU3cQDFm6bJ0FVjxSkS-1" value="" style="sketch=0;aspect=fixed;pointerEvents=1;shadow=0;dashed=0;html=1;strokeColor=none;labelPosition=center;verticalLabelPosition=bottom;verticalAlign=top;align=center;fillColor=#00188D;shape=mxgraph.azure.file" vertex="1" parent="1">
          <mxGeometry x="80" y="320" width="56.4" height="60" as="geometry" />
        </mxCell>
        <mxCell id="leU3cQDFm6bJ0FVjxSkS-3" value="Data source" style="text;html=1;align=center;verticalAlign=middle;whiteSpace=wrap;rounded=0;" vertex="1" parent="1">
          <mxGeometry x="66.4" y="290" width="83.6" height="30" as="geometry" />
        </mxCell>
        <mxCell id="leU3cQDFm6bJ0FVjxSkS-5" value="csv file" style="text;html=1;align=center;verticalAlign=middle;whiteSpace=wrap;rounded=0;" vertex="1" parent="1">
          <mxGeometry x="58.2" y="380" width="83.6" height="30" as="geometry" />
        </mxCell>
        <mxCell id="leU3cQDFm6bJ0FVjxSkS-6" value="" style="image;aspect=fixed;html=1;points=[];align=center;fontSize=12;image=img/lib/azure2/analytics/Data_Lake_Store_Gen1.svg;" vertex="1" parent="1">
          <mxGeometry x="650" y="324" width="64" height="52" as="geometry" />
        </mxCell>
        <mxCell id="leU3cQDFm6bJ0FVjxSkS-7" value="Azure data lake gen 2" style="text;html=1;align=center;verticalAlign=middle;whiteSpace=wrap;rounded=0;" vertex="1" parent="1">
          <mxGeometry x="650" y="380" width="60" height="30" as="geometry" />
        </mxCell>
        <mxCell id="leU3cQDFm6bJ0FVjxSkS-10" value="" style="strokeColor=#dddddd;shadow=1;strokeWidth=1;rounded=1;absoluteArcSize=1;arcSize=2;" vertex="1" parent="1">
          <mxGeometry x="334" y="300" width="110" height="44" as="geometry" />
        </mxCell>
        <mxCell id="leU3cQDFm6bJ0FVjxSkS-11" value="Scheduled&#xa;Tasks" style="sketch=0;dashed=0;connectable=0;html=1;fillColor=#757575;strokeColor=none;shape=mxgraph.gcp2.scheduled_tasks;part=1;labelPosition=right;verticalLabelPosition=middle;align=left;verticalAlign=middle;spacingLeft=5;fontSize=12;" vertex="1" parent="leU3cQDFm6bJ0FVjxSkS-10">
          <mxGeometry y="0.5" width="32" height="32" relative="1" as="geometry">
            <mxPoint x="5" y="-16" as="offset" />
          </mxGeometry>
        </mxCell>
        <mxCell id="leU3cQDFm6bJ0FVjxSkS-20" value="" style="shape=image;aspect=fixed;image=data:image/jpg,/9j/4AAQSkZJRgABAQEASABIAAD/2wBDAAYEBQYFBAYGBQYHBwYIChAKCgkJChQODwwQFxQYGBcUFhYaHSUfGhsjHBYWICwgIyYnKSopGR8tMC0oMCUoKSj/2wBDAQcHBwoIChMKChMoGhYaKCgoKCgoKCgoKCgoKCgoKCgoKCgoKCgoKCgoKCgoKCgoKCgoKCgoKCgoKCgoKCgoKCj/wgARCAIoAuADASIAAhEBAxEB/8QAGwABAQADAQEBAAAAAAAAAAAAAAEEBQYDBwL/xAAaAQEAAgMBAAAAAAAAAAAAAAAAAwUBAgQG/9oADAMBAAIQAxAAAAH6MABZQBQAAUACgAABQAAAAFIoigAAACKIoiwAAAASiAAAiiASiAASiASwAAAFABQABQAUAABQAAAAoAAFIoiiKIoiiKIAACKIAAACLAABKIBKIABLACLAACgFAAFABQAAUAAACgAUigAAAAAAAAACKIsAIoiwAASiAASiASiAAiwAgFACgAFAFAABQAAFABSUAAAAAACiKIAAAAABKIACLAABKIABKICLAACASgBQAFABQABQAAKACgAAAUigAAAAAAACKIsAAAIsAIsAAEogAIsAIABKIAUAAUBQAAUAAFAFAAAUlAAAAAAAAAAAABKIsAAEogIsAAIsAAIsEogAIsFlABQBQAFAABQBQAAFAAABSKAAAAAAEoiwAAAiwAASiAiwAAiwASiAiwASwoAFAUAAUABQBZQAAUAAFJQAFIoigACKIoiwASiLAACKIABLACAASiAAiwSiAAAFAFAAUAAUBQAAUAAFABSUB5no53RzQ995/McSWL6j5fMm2v032+WD65+vkedrt9OcR0EM23EUqURYARYAARYAARYJRAARYAJYARYAALKAUACgAKAKAAoAAKACgA1WdcbiMeWVcbTPzjnHp576AAAAbju/lmZBP9SePtX94MxYARYAARYAJRARYAJRAAQCWAAFAsoABQAKCygACgAKACgADkeu5CaHkNpq9/3cPf0q7TluJ7vhLCvCeAAAADtOq4jt66xCGYCLACLABKIACLBKIACAASwAgBQBQAWUAAoFAAUAAoBQAAUcf2HHzQ8h+vysa7sPfiEM2TjE0IAAAAHT9xw/cV9hFkE4AEWCUQAEWACUQEAAlgAlEBFgsoBQAKACygFAAoALKAKAAFSjmembafM30xPB8zfTB8zfTKfMn00fIfzlYvbxhnAAHT9xw/b11hXi5On1eXptijfCUQCWACUQAEAlgAlEABAJYLKAUAFAAsosoABQAKAoA5zW8t18mywPw6+SozioKgqCoKgAAAA6fsOP7Cos9IPEXaxlnbPnsq25dwl9BxRYJRAAQACWCUQAEABAJQAsoABQAUCygAoABQLKNBvvmM8GALCvAAAAAAAAAAA6fr+R6ymtNOPFXQAG0ztDvfS19lWUEBAARYAJYAQAEAAlgAAsoAsoABQKACygCygFBqvm3Y8dYV4TwAAAAAAAAAAD0Ow3ftg+busQeVtAAG60uxsYNiPTV8AlgAlgAlgBAAJYAJYAALKALKAAUFAAsoAsoBQcDz+31FpVhvoAAAAKR6U8nsZ8XsPF7DxZO11zo+8ztnxdn55/JxfIXIV84ADLxMjo03Q9fVwCWACWAAEBAAJYAJYAALKALKAAUFAAsoAsoBQfNdXt9RaVQb6gADstN9Z0u9wauw9MjS+NR29Febum3RucHRuch0k5yYdF5aFHttdf5OGYOWQAAB7eORNruh7GqgEsAEsAAICAASwASwAAWUAWUAAoKABZQBZQCg4Hn+x46yrQliAAzfqXE9jXd+Dr7PEXoQ7AAAAAAAAAAMvE2PXHsR6ysgEsAEsABACAASwASwAAWUAWCgAoFlAFlAFgoKlNV82+u/L+zjwh18gAHc7fBy/PXGuHkrYAAAAAAAAAABudXvLrkpL3jAQAEsAEsAIABAASwAJRYKACgAoFlAFgoAKBZRzXSzbT5E3uis60NtQPo3v4e/nLrXDyloAAAAAAAAAAM6bX3zT1lYlkuoEAAgAJYCAAEAAlgILKAUAFAAsosFABQALKAUH443tW8fyT8fWsTq5vmD6czjEys3CpLLXDytmAAP1lHRrvj5x0Y5x0Y5x0Y5x0Q510Q5323bbGFmlnzhNrAJYAAQACAlgABAAQCWCwUFAAsoAsFBQALKALBQLKAAVKNZs9ZwTa8eXsQAFjL3eCXX3eA93gPd4DaZ+s2fo+ATuhAASwAQAEsAAIBAASwAAgEACgWUAWCgAoFlAAKACpQCpQAC6zZa3gm148vYgAAAP3+Np0xpsHoeHnZm4Xm7DYbPWbL0XAHfCAIAJYAAIACWAEAAgAJYAQAFSiwUAFAAsoBQALKAAVKAVKAMLNkO3PPbx8jaBpkAABstbejTomp8rvjuMtB3Z+yxsn1FaHXGIACAACWAAEAlgABAAIAgAAsoBQALKAAUCygAFSgAFABUoB+NVuHJLzrdYlJ14D28uGaDTIBf3tjzZmT1x63Z5X6uOQLKAQAAgABAABLACAASwAAgEsAAAKBZQACgAWCgqUAAoAAKlAFgqUASsPP8+zTPj+vQz+f0b6hkIWAAIAACAAAgAlgABAAJYAQABKALKAUACygAFSiwUAAFSgACwVKAAAVBUFgAAAIAAAgAAAgCAACWAAEAlgAILKAAUCwUAFSgAFSiwUAAFSgAAAFQVBUFQVBUAAAAAgAAAgCAAAgAAlgBAAJYAUACwUFSgAFSgCwVKLBUoAAsFSgAAAAAAAAAAhYAAAhYAgAABAACACAABAALBQAVKAUACwUAAFSgFSgAAAFQVBUoAAIVBUAAAABAAIAAAIAAEAIAAIAEsFBUoABQLBQALBQAAVBQLBUoAAAAAAAAAAAAIWAAQAAAIAACABAACACABUoBUoAsFAsFAAsFSgACwVBQAVBUFAAAAAAQVAAAIAAACAAACAAgACAAgAABUosFAAsFAsFAABUFAAABUFSgAAAAAAAAhUAAAABAAAAgAIAACAIAAAAKACgAAoAAUAACgAAAAAAAoAAIAAAAAAACAAABAAIAACAAgAAf/EACwQAAAFAQUJAAMBAQAAAAAAAAABAgMEBRETIDBgEBIUITEzNEBQBiIyoCT/2gAIAQEAAQUC/wA9alpSDksEONjDjYwKSyYIyVpNakoJ6qsoDtVfUFyXnMRHYG5khsM1dwhHqDD2j59QTHDzzj6syJPdjiM+iQ3oupSOHjHzMRoL0gl0l8iWlSFZUV9Ud1pxLreiq/spzBSJXTZXWSNrLoLtqNFfkHUUVZJmbK44RRsug+Ror8g6gjMjj1f9Xaw2RPvLfcy6D5GivyDr6FB8jRVaYdeHAyRwMkcDJHAyRwMkcDJHAyRwMkKI0qx0HyNJyvJx0HyDMiK9QLxAvEAjI9AS6oho3psh0Goz9Wg+RI7W3oG3zIEdpfcqk/fP16D5Ejs4WXNw/t1eTcs+xQfIkdrFGXaX2pr1/J9igeRK7WJCt1X2am7dQvZoCP0lnyxsHa39ivL5ewhJrVFZJiPJO1zHEP7NbVbM9citOlwLgLVuJPmeON3PsVU7Z+YXMbihdrF2sXaxdrF2sXaxdrCWXVBilyHBDgtRgZ2E85vnkMd37FT87Ji0x14mqXGQER2UDdLJtIG6ggqSQWtS8pnu/YqpWT8ikQi3Q5IIgp5ZjeMWmLTFpi0xaYtMWnnsd37FbTZMxxGr+SXIpDtp+xG7v2K8jljoKLXnlbrfsxC+zU272FjoKf8Anlny9lgrG/szGbiRiopWQZnX2G07y/tVmNeNYqP4Evr7EdFift1OGcdeGj+BL6+uw1b91SSWmZSlJNSTQe2jeDL6+qltag2wRaAWhKyOHHMcFGHBRg22hpMvrjT/AFpOX1yL1YvVi9WL1YvVi9WL1YvViMtSj0VL6+hE/rRUvrlpSajTHILjg+WyJ/WipfXLiF+uyUX7iJ10VKL9cuKra+reWInXRRlaTiDQrKLkCkKC3VK2sI3EaLUklE4yac1KTUbTO7o9bSVBUcwbayxkhRgmFmEsJIEVmlNxIu0C7QNxIs/z2f/EACoRAAECBAMJAAMBAAAAAAAAAAEAAgMEERIUIDIQITAxQEFQUWETQoBx/9oACAEDAQE/Af6EdHYEZr0Fij6WKPpCaHcJsZrvDk2ipUSKXoQ3HfTNCjFu48vDR9BUPe4V2TGvNANWeFj6Ds/O+lFzzS+jwr23iiwzVhmrDNWGajkl9Csd6RBHgIsfs1Ek8+HJ9tsWADvb10d9reLJdskwy11etmDV/Fk2UIGSYFWdbE1HPRUVFRBjjyUGBbvKgQ7BvyRN7T1r9RyMYXmgUKWHYVQlCsL9WF+rC/VhfqEqO5TITWcsr9J62MKPOSVZu/1MYGCg4kY0YetmW/tkkxp4s079ete24UTmlpodsnzbxHuDBUpzrjU9c+GH80ZU9isK72pUUcBlxXxYr4sV8WK+LFfFiviM0ewTnl3PwUvry2N9KxvpWN9KxvpRxR/hZfXmiPsbVfmfWtUx1zaqY1+FY611UDXeMsRl7aISzqpotFFGdc8keGhxSxNmGlAg8ttaJ0dgUSOXbh4q4q4+/wCh/wD/xAA0EQAABAIFCQcFAQAAAAAAAAAAAQIDBBEFEhMgMRQVITJAQVBSYhAwQlFxoeEjMzRhgPD/2gAIAQIBAT8B/oRLCzBQvmYyUvMZKXmDhT3GFMrTwdJVjkQbaJANxJaJ3nWSVpLHgzGuQcMyScuyH1Lz5SXwVj7hdlgicxheiNfgqFVDmMqUMqUMqUMqUCuRJyXMxbt8xBLiVYHwBqH3qBJIsO7pHVX6dsFSKknUdw25hFZXe0mckL9LlGP2jdU8S22HTJE+9pd36R/u5RjlV+XntreoV+YmJiYNaSxMPREykWApCKt1yTgVyFOq8k/3tqNUri1kgpmIiNsyms5BdMI3FMZ4LlGeC5RnguUZ46PcKpdfhSHot17WO6x91PrtrJzQVyMdJOk9wfeU8uurvIFNZ9JbbCq8NyllfSX3tEM6TdPbUKqnMJUSimXbS/2l/wC394yyp5VRIZaJlBITtyHDRgCii3kMqT5ClTmyo/8AY3C0jM/X7fIzP1+3yMz9ft8jM/X7fIzP1+3yMz9ft8hNDp8SgywhkpILgVJfjndt3eYxbu8xi3c5jFu5zGKOUamCM+C0l+Od6FYt3SQMgYq1aofbsnDR5Cjfxy4LENWzZoCkmg6qrsM/YOEsKpVkkzIOLNxRrPeIFs22EpVwaJg24jHEO0a8jDSFIUjWLtJJqwDdHvubpeohqNQydZWk+FG0g8SBMtl4RKX9Df/EADUQAAECAQcKBAYDAAAAAAAAAAEAAgMRISIwMTJgEBIzQEFQUWFygSAjcZITQlKRocEEoLH/2gAIAQEABj8C/r10nAepU8Vn3WmYtMxTRWfdUSD6YTleQBzXlgxD+FQzWKnFee/imVGK7vOvNY13pMpM7Ndwdg/MZSif4pYri6tklz4f0lZ8M9uGDCW33TBT5JWtkbxKoljuSLXiRw2VYezuOKa9lhwXA75GtddE5U2RsX5gZKyJDOycYLgd/wBZJD8wkytZtcayJ04Lgd/1klExUn8hpl4tXlMcTzmRfEMprInTguB3/WoxOnBcH4TC6SWVaFy0LloXLQuWhctC5aFy0LkQbRUROnCkbrP+1ETpUpV4K8FeCmOAM2DTdx2KlEIHBsynJOqxOlHw05wpt+mDBNH5jx1iJ0p3inu78zGGm/8AA1mJ0o+PNOzfb37LB6azE6V38YO+oh2miNaixOJkTRUDfMJnfWQ1olJTIY2L0qHDfMnBusSCcr4sXSHZ9KJwFErZldd9lcd9lcf7Vcf7Vcf7Vcf7Vcf7Vcf7VNDf7VTAhjmpWjOf9RUpXKpbvmN61Wc/y287VOC88yqMJg7KwVNqvKiFSNU3fMSpEeKOkfvJRnVqtKtKtKtKtKtKtKtNe3fMv1NqGQ+JnUgWa2zCUJ/aoiP4CRE60475iDaKVQ93FyaNaHPfT4ewWenjHUU3WQN9/FbeZb6eNndN1mU2nfmeweUfx4md03WM51m/S1wlBRd/HpN+napHAg8/A31Kbq1ipT4Ake0O9QtCz7LQsWhYs2G0NHJNqBhRtTeKvFXirxV4q8VeKvFHOOC26i7BbayQKkVROV2C21hOX1yOwWDwrC3LNZkdguQqSs2Fcss9pwZIVxFbMFKZzg+xUSrvjmBU8ynnU2FLoV0K6FdH9e3/xAAsEAABAgMFCAMBAQEAAAAAAAABABEhMVEwQWFxoRBAUGCBkfDxILHB0aDh/9oACAEBAAE/If8APX9AYvzXRB/RAku4vy3Q58wPymUiu8mT8KkEO5O7A4BzqpUFJEYzJPxITkRkVcDoTNVAwNYiJgH2FyeWIRf0zp8U0HS1NAsQfRUXIXlMseTCzkZeKIkJOTMnY1NV2ByTrKUFkVjCErrMvX0BRGacbjks5Lo/rZGKhdQLkAAAAACQGwEwzqag2hCqcdafJeh2QGRnwz2vJhS2AtPFx5L0OyEykBcEXIYAkHW6LQr5PtnsBQWnm48l6HcbzceSytA66VjmZmZmBDYjEUNh5uI5IcVTioUKqFQoYKGChgoYKGChgoYKGC8TVYebiE8lhtSPcKQhy5ANBAc7j+ooejAiTlMSnNU5qnNU5qnNU5qnNU5qnNU5qnNU5rY+biPjwSTgsVBMxegAJODx0zJjAOjLePNxHzB2Zk8OOSeQn7h3nzcRYd5mSZcazR3ifopbyEXzFE2YPnhap8ZYAsHueHeigy4Hp7XWD2GPhDjMP3kn9D93l282AV0hiam9P4oaw+w4yx0w7x3gggkkABemjMKFD+oRW5ESEzNgbNqOM5RYaWoGQTkgWXer29e+L3xe+L3xe+L3xFGPOZEAahn7LMwTelEIxGAUPEBlYk3IYo4QFoi6Jlx9+S0CRQDIHRN83xRFMO6mwdIoSeTUo4/QstTxnOLHSxjjExNdsE2F9blR+SJZ95e8XvF7xe8XvF7he4TmptoszjLXSntCwpl2F6AAAwEAEYhoJmu8g4YA8Zh8SJP7H7YPqLt1TMTkN6idDjLYBws6f8ewaw32CzoX3rH0XGSHDGSJfg/0fN4VItCd5xJnxswBv3Hzav7LTHefOgcbIBDGIRW6PDHT5av7LTHeHIBhFeOihDMQb1mRmTKqNR3cDH4G+GjTHdQCZAqSH1gorGpdyAxhUcRaPTT1S9UoxBdk0xsNRyppjYCBsczMzMxxwsOS9Mdx0nJemNoJhclM4hOCC0Z6FASIIYjZoOS9EbQIvJLbRATRs0XJb9atBMScxtHTIDZouSxGkFOJK42ZEnBYoURCA7EtQNvUAeTGmwUTGaLViGJQvVeT5mw1CDkHNT0ukUQRMfKYrorsZlPJUAMAAw5TIBmHRJPsbYgD/ggAkAP89n//2gAMAwEAAgADAAAAEBPKHIHPIHMABHIDHPPOMMAAAAMMNPPLCELCAMLEPLELFPCPOBOHPIHIABOAHPPMBDOMMMMMMPDCMPPLCNCAELEPLFCNPPBOFPIHIADIBPPMDOMADDHPPLDDCMNDMNPCELAELEPKNCPIHBPOFIAHIHPOBOIDHPPPPMMPPPPLDEPCNPLELAEKNPCLEBIHOBOABIHPMDMBHPOMBDDHDDDCMNPLCNDNPLECANCPLECGFPIGABOBPOHIDPOIDPPPPPPPPPPDENPDELNPCNCAJEPKNKPOFIAOBPOFIHPOBPPOMADDDDAENPPCNPLELNPCNAEKNPFFPIOAFIPOBKFPODPOIDGMMAAMMNDENPDMPKFCPPEKANEPKHOFIAOFPIOBPOHPOBOIBDEHqgRQENCNPLNPCNEPKNAFKNPPKHAFIPOFIPOBPOBOAA3edfvvvjSwNCNPCNPELNPEKALFPPAKAPFPIKFPIPOBOABKejFvvvvvlCANCNPEPKNEPKLAFAPOFIAKHPFIPOHPAOABOALvffvvvvidCANEPLNPEKPLFAEKNKHAFIPKHFPIPKFIBPCL/wD/ALz++++5IxIQoU8Q8osU8QoAoUo8AUE8ooU8U8g4AWt++++++++++s/9pI0Q8o8oUQ8IoA8QAoA8U8Eo84U8UoN++++++++++++6/wD/AM1CjyjTxQjyjwBQACgChTxSDyjyhQDX77777777777n/wD/AP6gKFPFPFKPKFAFAAKAKFPFAPKPKFANfvvvvvvcMMNT1/8A/wD5AoU8U8Ao8oUAUAAoAoU8UA8o8oUAf++++n+4w0/ud/8A/wD/AIAsU8U8Ao8oUAUAAoAoU8UA8o8oUA2+++RW/wD/AP8A/wD/AP8A/wD/AOoChTxTwSjyhQBQACgCxTxSjyjSxQhr777P/wD/AP8A/wD/AP8A/wD/AP8AUShzhTxSjyhwBQAiwDxDwCjSxTwChfb74L//AP8A/wD/AP8A/wD/AP4gUg8oc4UE8o4AUEo0AUA8osU8Q8o0An99o/8A/wD40EEE0m8sDhTyDyhxTwCgDhSxQBCjyxRDyjSxCgDQjX//APt8888SE4AUgc4U8Aoc8UgAoc8QoAsU8Qo08Q8I0IA0Z/8A/wD/AP8A7/BeABOFPIHOFIPKHAFIPPCLAFAPKNEPKNPCNCAIdf8A/wD/APB2EQBOBPOFPIOFPIKAHBPPKFAEKFPEKNPCNPANCAAOf/8A/fbkATgDzyTzhSDzhSADhTzTxCgDRDyzQjTxDzwjCwgBLECIARzATzyTzgThTyDgBSDyhjyjQBChTwiRDzxjTywjDDwwxzDABzziTzyBgTzhSADhTySjTxCwDQjTxixDzwjDzzwwwwwwzzzzATzyByTzgSgBSDzhTRDyxQgDRjywiQjTywjDTzzzzzzjARzzgRyTzyDgAShzyDgCxTwjQBCRDzwjQhDzzwwwhAAQwzzzyAzgTzyBwADgTyhwCxQjzxCwBCxDTwzCwhDDzzzzzzzzCARyAzziByABwDzgSBzwjQjyxCwACwjTywzDQwwDDDDAAwzjATzzgTyAByBzwTgTzTwixDyxCwADAxDzzwwjDDDTDDDAQzzziAzgAByBzyBwTzgDyByBzyBzwAByABzzzzzyAABzzzzzyAByAADyBzyByBzwD//EACoRAAECAwQLAQEAAAAAAAAAAAEAESAhMUFQUWEQMEBxgZGxweHw8aGA/9oACAEDAQE/EP6DJaqtF9yAg2IIWoaASoGdzjJQCJzpggzCZENIwlaiAghxcvTdUACofQABNEYL3L03UaAKYiSTmKjxuUJTtWcVnFZxWcUDEiASQAWY5KqBrgOD+6KuT6ujf76KoY2xw26XCp1oON/vBIFDtssw1gDyCOYsDwTzDbTc2cbk7BOwTsEZYE6E04IrtRgFlkdtl3xhyFFnmaEEyAn/AAn/AAn/AAn/AB5QKJkE4fyG4QPS1JAOsnBts8BugnBl21skBv20JztRFU0/g7a1Ac9ttwtkcIyCOasHaAlg6938L3fwvd/C938L3fwvd/CICDbm9xUePSHKcllOSynJZTkgEAGFy0ePSJ4GqCwxY1V4dLlbsKAIoQgIpLCzIIAoECgLmLymMFW5FTQn0kJiVaL7kHoC6gOhKJ6lzRL1/ob/xAArEQEAAQEECAcBAQAAAAAAAAABEQAhMUGxIFBRYXGBodEQMECRwfDx4YD/2gAIAQIBAT8Q/wBBhN1YDHGloMVU4K8EWylm7U6heNB2X7aWkJoZtNEW5zUiMOpc9lSFejwSidIljUucy8F7CgBBpX/LUqicK3BW4K3BW4KUg6AIkAV+oUnBvBHUBJ06BgR5fXcvAUZKBrKxbzjtMqv9bbzcebMt7LQWfweWHbl63jDzFi2hlMYH3gaEVhCfPx60wG7ThUNtQ21DbRM0E1hiaAX2W9xe390OCTP1tvhGjsGw7Z9talW/Ex3r6X+V9L/K+l/lIw+nKlXBxV7UfFnsLD+89EyJsZmoZTNyZ+aVLf0Nnmbnmfa31tirjoMIbQ6nmo3YWGb8e/rVM4USuvHqjJ5h8bXpvau6jrtfXNy6gUbxQnYpk0BINOIiIgrapuI+WrD46vF1Fl8zR/Se9fpPev1HvX6j3pLVbb+LqXL5mlNDBe8Cl+otn3q1uZflde5upRXxOt51p6EJfooSTF5uqEKuyI6/tX/KmhwhtfdnUxs2cCfO2n5Md1/t2mnoQ4keLUFXdTGFtsdL+lFHj9jl31Sg2NXMvIq4AcigCD/Q3//EAC4QAQABAQMKBwEBAQEAAAAAAAERACExUTBAQWFxgZGhsfAQIFBgwdHx4ZBwoP/aAAgBAQABPxD/AMUj/wBAPY7mj6XsrkdHU1IQ9jdGlIeM+qZjih8Veddl1ajBcQ6Pad61QgKZGP6S/cU2Et1nb7HKp6WYpwFlJU7QZqDA4eMGBwoInLlCKaLOu5EkUuaS5vlHlTTrkM1wG540Mlns6Jd4C/2OrjT3RCLGwuGVd4DbKQ4h0o7oJZMIM2fM+oMxEhxJLuA8qUIpUSq6XwHud3zoemun5eTIbsmynCZCwrJz4osV1tfDoqIz7aTEdZdnb6g5b2rDWf2+BiwHsBLHOjKFAIAwPAS4Ai2VE7E55SR4GnQSBxB3+y+w4+A20nuwhvh8Y+o5K20l4plO71fZfYcfAK0yEKLkovtQmO2qIdjTGRFkQHXCrV1BAFmhBoMp2+r7L7jjmLt9X2WjHAa0x6PCvzz7r88+6/PPuvzz7r88+6/PPuvzz7r88+6Qe868GE4+znipC9DfWoca/QqcDjU/0VOLiqcXFU4uKpxcVTi4qnFxVOLioZX8WSAfKgnetfpV+9QrZv4UZJeKH04zG6+mFpCMPt0tllS4jSRcLeLWuSjrzrXONa5xrXONa5xrXONa5xrXONa5xrXONa5xrXONa5xyXwnVx1PIYUFyMNME2BufdFktQmnJOZPlM8SYtbtekPZ2X5x9yh1PMCZVsdRQiCMjaOdvoCkgaA23G0bjfnXzjXQc/OrKbbW/j1c8VAVQFq4VbtKBhYcV+/OUdCAcT9VZGA6+dhrlbrNNCAS0bT0kyp4tESbSy8pbs6Nyyb6ivRwqKZapGQteza913KPWWGrA+z7M5MwFPpWlSnezauM1CrIW/e5C1VwPT69Ztws2da+WcNdEClWAUhhcZSfLThdWjJWGLoKUOUVdeQhcWfPrDUjxcMZRQvQ2tcmEvSr2OxPipru31V2j8V2j8V2j8V2j8V2j8V2D8UfetAPUpWDvSd0UCIUgQ7i4bONDCvy05S3M6dbkdsmOXrDdU7btBkrXUwshiaO9KIRi9UO5BQIRV0T4rlKEoBcBu86C8cat8e0UWy40fRRybBJwqRhC4WBuyXIfSTLtMN/rGRjps7yDEYujjVxTIg4rH3SDaOBilpXv1+1r9rX7Wv2tfta/e1+opa9NrUGBlRsUvSTzmR7SI/DIPEN+Gg28lm+j0DAXAXFQoLItLDZnM40K+PWZr6H2x0MgGaAkwVbyKk9Ed451uSHr6WZZYSQddt6G/IDH22jYfdMTrzgP7nVviLTvu5R6yCBKITEpDDaXFW8lm7z9zVB8UrLskzlSLluGmgAAsCw9WPJE7aELcXc27J85hcU5q7piZyzFA2Do9bIhEIRJEpSEki2TT1YO7zKdT1Fd0xM4eIhanezN30I8kdGjyDXUyLMycU3OdX9JGBufJCsFzrumJkYcGocGocGocGocGocGocGocGocGocGocGocGlIQ6ilCOYiHOkBg7hc+6uuyTmTmRmOpDqPOpJI1J08UpMGKhQS3td0xMhyPrVmBVmqrNVWaqs1VZqqzVVmqrMCrMCtxVmBmb6r3TEyCQRhGTIszERERCKCDot9l9kxMx5B19l9kxMp0Aiox1eshUumF1rO+lLIhHR4co6+y+6YmUgPpDAPEXkMrtLPDlnX1UzZTDQOx/sZSd0S22PguNK1SM2OL4Fl0A6vssDJKEpxaq3EMmJcDIjaVBmMUhpkdrxidvgWsFPYIaDDAzt9RfTldiOJTaLhFptMrs1lo20sOBcaPs+z5Zk9S1MI+Fhq9KYiHKkIQdZ5QW4WruTGUVEWPWl5VDLGFxR860CPaYMENZNXkd2lL+FQf1VcHBNcrwD0w9juaP8Ahmf6Zf/Z;" vertex="1" parent="1">
          <mxGeometry x="349" y="360" width="80" height="60" as="geometry" />
        </mxCell>
        <mxCell id="leU3cQDFm6bJ0FVjxSkS-21" style="edgeStyle=orthogonalEdgeStyle;rounded=0;orthogonalLoop=1;jettySize=auto;html=1;exitX=1;exitY=0.5;exitDx=0;exitDy=0;" edge="1" parent="1" source="leU3cQDFm6bJ0FVjxSkS-2">
          <mxGeometry relative="1" as="geometry">
            <mxPoint x="650" y="350" as="targetPoint" />
          </mxGeometry>
        </mxCell>
        <mxCell id="leU3cQDFm6bJ0FVjxSkS-24" value="&lt;b&gt;&lt;font style=&quot;font-size: 18px;&quot;&gt;Data Architecture&lt;/font&gt;&lt;/b&gt;" style="text;html=1;align=center;verticalAlign=middle;whiteSpace=wrap;rounded=0;" vertex="1" parent="1">
          <mxGeometry x="350" y="210" width="170" height="30" as="geometry" />
        </mxCell>
      </root>
    </mxGraphModel>
  </diagram>
</mxfile>
